<svg width="23" height="23" viewBox="0 0 23 23" fill="none" xmlns="http://www.w3.org/2000/svg">
<path fill-rule="evenodd" clip-rule="evenodd" d="M21.5625 11.5C21.5625 11.6906 21.4868 11.8734 21.352 12.0082C21.2172 12.143 21.0344 12.2187 20.8437 12.2187L3.89131 12.2187L8.41513 16.7411C8.55009 16.8761 8.62591 17.0591 8.62591 17.25C8.62591 17.4409 8.55009 17.6239 8.41513 17.7589C8.28016 17.8938 8.09712 17.9696 7.90625 17.9696C7.71539 17.9696 7.53234 17.8938 7.39738 17.7589L1.64738 12.0089C1.58044 11.9421 1.52734 11.8628 1.4911 11.7755C1.45487 11.6881 1.43622 11.5945 1.43622 11.5C1.43622 11.4055 1.45487 11.3118 1.4911 11.2245C1.52734 11.1372 1.58044 11.0579 1.64738 10.9911L7.39738 5.24112C7.53234 5.10615 7.71539 5.03033 7.90625 5.03033C8.09712 5.03033 8.28016 5.10615 8.41513 5.24112C8.55009 5.37608 8.62591 5.55913 8.62591 5.74999C8.62591 5.94086 8.55009 6.1239 8.41513 6.25887L3.89131 10.7812L20.8437 10.7812C21.0344 10.7812 21.2172 10.857 21.352 10.9918C21.4868 11.1266 21.5625 11.3094 21.5625 11.5Z" fill="black"/>
</svg>
