<svg width="28" height="28" viewBox="0 0 28 28" fill="none" xmlns="http://www.w3.org/2000/svg">
<path d="M14 1.55556C11.5387 1.55556 9.13271 2.28541 7.08623 3.65282C5.03975 5.02024 3.44471 6.96379 2.50282 9.23772C1.56093 11.5116 1.31449 14.0138 1.79466 16.4278C2.27484 18.8418 3.46005 21.0592 5.20044 22.7996C6.94083 24.5399 9.15822 25.7252 11.5722 26.2053C13.9862 26.6855 16.4883 26.4391 18.7623 25.4972C21.0362 24.5553 22.9798 22.9602 24.3472 20.9138C25.7146 18.8673 26.4444 16.4613 26.4444 14C26.4444 10.6995 25.1333 7.53424 22.7995 5.20045C20.4658 2.86666 17.3005 1.55556 14 1.55556ZM14 24.8889C11.8464 24.8889 9.74112 24.2503 7.95045 23.0538C6.15978 21.8573 4.76412 20.1567 3.93997 18.167C3.11582 16.1773 2.90018 13.9879 3.32033 11.8757C3.74048 9.76345 4.77755 7.82323 6.30038 6.30039C7.82322 4.77756 9.76344 3.74049 11.8757 3.32034C13.9879 2.90019 16.1773 3.11583 18.167 3.93998C20.1567 4.76413 21.8573 6.15979 23.0538 7.95046C24.2503 9.74113 24.8889 11.8464 24.8889 14C24.8889 16.8879 23.7417 19.6575 21.6996 21.6996C19.6575 23.7417 16.8879 24.8889 14 24.8889Z" fill="#666666"/>
<path d="M14.2255 6.93778C13.3827 6.92385 12.5471 7.09573 11.7782 7.4412C11.0093 7.78667 10.3259 8.29725 9.77666 8.93667C9.70035 9.00739 9.639 9.0927 9.59625 9.18756C9.5535 9.28241 9.53021 9.38488 9.52777 9.48889C9.52772 9.58486 9.54697 9.67985 9.58438 9.76822C9.62179 9.85659 9.6766 9.93654 9.74553 10.0033C9.81447 10.0701 9.89613 10.1223 9.98566 10.1568C10.0752 10.1914 10.1707 10.2076 10.2667 10.2044C10.4721 10.1994 10.6686 10.1191 10.8189 9.97889C11.2346 9.49175 11.7509 9.10046 12.3322 8.83192C12.9136 8.56339 13.5463 8.424 14.1867 8.42334C16.0222 8.42334 17.1655 9.60556 17.1655 11.0756V11.1144C17.1655 12.8333 15.7967 13.79 13.6344 13.9533C13.5469 13.9567 13.461 13.9785 13.3825 14.0174C13.304 14.0563 13.2345 14.1113 13.1787 14.1788C13.1229 14.2464 13.082 14.3249 13.0587 14.4094C13.0354 14.4938 13.0301 14.5823 13.0433 14.6689C13.0433 14.6689 13.0433 16.4733 13.0433 16.8078C13.0627 17.0003 13.1531 17.1787 13.2969 17.3081C13.4407 17.4376 13.6276 17.5087 13.8211 17.5078H13.9067C14.0992 17.4884 14.2776 17.398 14.407 17.2542C14.5364 17.1104 14.6076 16.9235 14.6067 16.73V15.1278C16.94 14.8011 18.83 13.5722 18.83 11.0211V10.9822C18.8067 8.64889 16.9867 6.93778 14.2255 6.93778Z" fill="#666666"/>
<path d="M13.8289 21.35C14.3659 21.35 14.8011 20.9147 14.8011 20.3778C14.8011 19.8408 14.3659 19.4056 13.8289 19.4056C13.292 19.4056 12.8567 19.8408 12.8567 20.3778C12.8567 20.9147 13.292 21.35 13.8289 21.35Z" fill="#666666"/>
</svg>
