<svg width="72" height="72" viewBox="0 0 72 72" fill="none" xmlns="http://www.w3.org/2000/svg">
<path d="M30.5773 24.6051C30.3943 24.7957 30.2491 25.022 30.1501 25.2712C30.051 25.5204 30 25.7875 30 26.0573C30 26.3271 30.051 26.5942 30.1501 26.8434C30.2491 27.0926 30.3943 27.319 30.5773 27.5095L38.2373 35.5018L30.5773 43.4941C30.2082 43.8792 30.0008 44.4016 30.0008 44.9463C30.0008 45.491 30.2082 46.0133 30.5773 46.3985C30.9465 46.7836 31.4471 47 31.9692 47C32.4912 47 32.9919 46.7836 33.361 46.3985L42.4227 36.9437C42.6057 36.7531 42.7509 36.5268 42.8499 36.2776C42.949 36.0284 43 35.7613 43 35.4915C43 35.2217 42.949 34.9546 42.8499 34.7054C42.7509 34.4562 42.6057 34.2299 42.4227 34.0393L33.361 24.5845C32.6108 23.8018 31.3473 23.8018 30.5773 24.6051Z" fill="black"/>
</svg>
