<svg width="21" height="20" viewBox="0 0 21 20" fill="none" xmlns="http://www.w3.org/2000/svg">
<path d="M10.6685 0.570707L10.669 0.571184L20.2103 10.1882C20.2103 10.1882 20.2104 10.1883 20.2104 10.1883C20.5963 10.5776 20.5963 11.2101 20.2119 11.5994L20.2112 11.6001C20.0279 11.7865 19.7791 11.89 19.5183 11.89H18.513H18.013V12.39V19.2523C18.013 19.3938 17.9016 19.5 17.7717 19.5H12.1123V14.7662V14.2662H11.6123H9.01791H8.51791V14.7662V19.5H3.22912C3.09931 19.5 2.98786 19.3938 2.98786 19.2523V12.39V11.89H2.48786H1.48252C0.945021 11.89 0.5 11.4473 0.5 10.8946C0.5 10.6295 0.60524 10.3752 0.790439 10.1883C0.790481 10.1883 0.790524 10.1882 0.790567 10.1882L10.3319 0.571184L10.3323 0.570707C10.3548 0.548009 10.3812 0.530234 10.41 0.518187C10.4388 0.506143 10.4695 0.5 10.5004 0.5C10.5313 0.5 10.562 0.506143 10.5908 0.518187C10.6196 0.530234 10.6461 0.548008 10.6685 0.570707Z" stroke="#666666"/>
</svg>
