<svg width="22" height="24" viewBox="0 0 22 24" fill="none" xmlns="http://www.w3.org/2000/svg">
<path d="M11 7C11.5523 7 12 6.32843 12 5.5C12 4.67157 11.5523 4 11 4C10.4477 4 10 4.67157 10 5.5C10 6.32843 10.4477 7 11 7Z" fill="#666666"/>
<path d="M4 17.8182H17V20H4V17.8182ZM8.33333 12.1782L11.358 15.2262L15.6177 10.9335L17 12.3636V8H12.6667L14.0858 9.39091L11.3569 12.1389L8.33333 9.09091L4 13.4545L5.53183 14.9971L8.33333 12.1782Z" fill="#666666"/>
<path d="M18.7 2.18229H15.0722C14.9642 2.021 14.8467 1.86618 14.7202 1.71867L14.7092 1.70558C13.901 0.772051 12.7639 0.179736 11.5302 0.049611C11.1799 -0.016537 10.8201 -0.016537 10.4698 0.049611C9.23608 0.179736 8.099 0.772051 7.2908 1.70558L7.2798 1.71867C7.15338 1.86583 7.03584 2.02028 6.9278 2.1812V2.18229H3.3C2.42505 2.18316 1.58619 2.52823 0.967513 3.14179C0.348832 3.75534 0.000873637 4.58725 0 5.45495V20.7273C0.000873637 21.595 0.348832 22.4269 0.967513 23.0405C1.58619 23.6541 2.42505 23.9991 3.3 24H18.7C19.5749 23.9991 20.4138 23.6541 21.0325 23.0405C21.6512 22.4269 21.9991 21.595 22 20.7273V5.45495C21.9991 4.58725 21.6512 3.75534 21.0325 3.14179C20.4138 2.52823 19.5749 2.18316 18.7 2.18229ZM19.8 20.7273C19.8 21.0167 19.6841 21.2941 19.4778 21.4987C19.2715 21.7033 18.9917 21.8182 18.7 21.8182H3.3C3.00835 21.8179 2.72873 21.7029 2.5225 21.4984C2.31628 21.2939 2.20029 21.0166 2.2 20.7273V5.45495C2.20029 5.16572 2.31628 4.88841 2.5225 4.68389C2.72873 4.47938 3.00835 4.36435 3.3 4.36406H8.305C8.43123 3.74756 8.7685 3.19328 9.25966 2.79516C9.75081 2.39704 10.3657 2.17956 11 2.17956C11.6343 2.17956 12.2492 2.39704 12.7403 2.79516C13.2315 3.19328 13.5688 3.74756 13.695 4.36406H18.7C18.9916 4.36435 19.2713 4.47938 19.4775 4.68389C19.6837 4.88841 19.7997 5.16572 19.8 5.45495V20.7273Z" fill="#666666"/>
</svg>
