<svg width="21" height="21" viewBox="0 0 21 21" fill="none" xmlns="http://www.w3.org/2000/svg">
<path d="M10.5131 21C16.2958 21 21 16.2899 21 10.5C21 4.71012 16.2958 0 10.5131 0C6.97378 0 3.83646 1.7605 1.93745 4.45725L3.35755 5.46875C4.16366 4.31841 5.235 3.37974 6.48068 2.73236C7.72636 2.08498 9.10962 1.74799 10.5131 1.75C15.3502 1.75 19.2522 5.65687 19.2522 10.5C19.2522 15.3431 15.3502 19.25 10.5131 19.25C9.10969 19.2516 7.72656 18.9145 6.48094 18.2671C5.23532 17.6198 4.16392 16.6813 3.35755 15.5312L1.93745 16.5427C2.90455 17.9204 4.18871 19.0446 5.68137 19.8205C7.17404 20.5963 8.83132 21.0009 10.5131 21ZM4.09513 14.6291L5.35181 13.3709L3.35755 11.375L14.0087 11.375L14.0087 9.625L3.35755 9.625L5.35181 7.62912L4.09513 6.37087L0.599503 9.87087L0 10.5L0.600376 11.1291L4.09513 14.6291Z" fill="#3F4AAF"/>
</svg>
